<?xml version="1.0" standalone="no"?>
<!DOCTYPE svg PUBLIC "-//W3C//DTD SVG 20010904//EN"
 "http://www.w3.org/TR/2001/REC-SVG-20010904/DTD/svg10.dtd">
<svg version="1.0" xmlns="http://www.w3.org/2000/svg"
 width="1491.000000pt" height="1491.000000pt" viewBox="0 0 1491.000000 1491.000000"
 preserveAspectRatio="xMidYMid meet">
<metadata>
Created by potrace 1.11, written by Peter Selinger 2001-2013
</metadata>
<g transform="translate(0.000000,1491.000000) scale(0.100000,-0.100000)"
fill="#000000" stroke="none">
<path d="M4960 14884 c-25 -14 -119 -65 -210 -111 -91 -47 -203 -106 -250
-130 -152 -80 -340 -196 -443 -276 -56 -42 -120 -89 -142 -103 -56 -37 -88
-68 -158 -154 -71 -88 -116 -134 -150 -152 -22 -11 -137 -165 -235 -312 -71
-106 -133 -252 -147 -346 -9 -63 -36 -118 -81 -166 -52 -55 -107 -90 -239
-154 -168 -82 -238 -131 -359 -254 -61 -62 -156 -146 -211 -187 -55 -41 -101
-77 -103 -81 -2 -5 -7 -8 -12 -8 -11 0 -106 -95 -160 -160 -24 -30 -103 -111
-174 -180 -241 -233 -322 -351 -345 -501 -14 -91 -34 -154 -74 -239 -90 -192
-269 -393 -432 -485 -106 -61 -174 -121 -269 -240 -179 -225 -273 -424 -281
-595 -7 -138 -24 -219 -85 -395 -61 -179 -68 -205 -76 -310 -18 -224 86 -380
365 -543 48 -29 457 -232 466 -232 9 0 163 -92 252 -151 57 -37 212 -121 346
-187 157 -78 259 -135 289 -162 26 -22 71 -49 100 -59 165 -58 287 -123 653
-344 92 -56 173 -100 275 -151 41 -21 83 -42 92 -47 10 -5 39 -17 65 -27 27
-10 104 -51 172 -90 68 -40 125 -72 128 -72 2 0 79 -41 171 -91 493 -270 684
-417 888 -685 116 -152 139 -220 138 -409 0 -128 -4 -164 -44 -385 -33 -184
-38 -215 -46 -315 -6 -65 -12 -79 -88 -205 -119 -197 -162 -290 -186 -405 -13
-62 -16 -166 -5 -213 3 -15 7 -36 9 -47 9 -45 26 -74 58 -98 54 -40 96 -58
142 -59 125 -2 241 97 417 357 66 98 106 188 203 458 108 299 172 416 285 524
58 55 185 118 276 136 65 13 74 13 120 -5 157 -61 388 -179 754 -386 141 -79
281 -158 311 -174 30 -17 73 -40 95 -53 22 -12 72 -39 110 -60 39 -20 108 -59
155 -86 98 -56 187 -95 415 -181 188 -71 347 -145 429 -201 87 -58 396 -326
511 -441 181 -182 271 -339 292 -509 8 -71 8 -76 -1 -176 -7 -90 4 -136 47
-192 80 -105 306 -167 463 -128 48 12 54 19 112 117 50 85 139 181 209 228
218 145 445 127 669 -52 68 -55 100 -71 424 -224 91 -42 206 -96 255 -120 50
-23 205 -99 345 -170 263 -132 399 -192 725 -325 105 -42 223 -92 263 -111 41
-19 76 -34 79 -34 2 0 50 -22 106 -49 56 -27 127 -55 157 -61 312 -66 500
-236 563 -508 16 -67 19 -211 7 -287 -7 -48 -14 -93 -25 -180 -3 -22 -7 -51
-10 -65 -11 -59 -14 -77 -19 -110 -3 -19 -7 -44 -10 -55 -5 -26 -16 -92 -21
-130 -2 -16 -9 -66 -16 -110 -17 -117 -15 -372 5 -475 8 -47 18 -104 21 -128
17 -144 207 -339 358 -367 21 -4 41 -14 44 -21 10 -27 33 -19 183 62 14 8 30
14 36 14 7 0 39 26 71 58 138 135 166 298 108 635 -14 80 -27 161 -30 179 -3
18 -9 58 -14 88 -13 79 -6 256 13 316 19 62 81 158 219 341 243 322 311 474
302 678 -6 154 -65 316 -173 480 -26 38 -49 72 -52 75 -10 9 -196 246 -244
311 -33 45 -67 112 -106 210 -55 136 -103 251 -334 788 -54 124 -110 248 -125
275 -67 122 -85 152 -100 176 -10 14 -22 36 -29 50 -6 14 -25 48 -42 75 -16
28 -47 79 -67 115 -20 36 -41 67 -45 68 -4 2 -8 8 -8 13 0 13 -181 300 -298
474 -92 136 -332 460 -356 480 -6 6 -21 22 -32 37 -78 101 -317 350 -363 378
-70 43 -223 185 -282 260 -80 104 -136 180 -200 275 -41 60 -99 132 -129 160
-279 256 -445 466 -734 925 -271 432 -375 586 -491 730 -33 41 -86 110 -118
152 -126 167 -232 284 -608 666 -258 263 -327 336 -409 431 -118 138 -161 183
-379 396 -319 312 -611 604 -646 645 -25 29 -71 86 -138 170 -54 68 -113 163
-161 258 -70 140 -209 359 -271 428 -5 6 -23 29 -40 50 -162 208 -466 503
-899 874 -16 14 -39 34 -50 45 -12 11 -68 61 -126 112 -58 50 -118 104 -135
118 -16 15 -140 115 -275 223 -135 108 -256 206 -270 218 -14 12 -61 52 -105
90 -98 84 -224 208 -294 291 -50 59 -52 63 -43 95 24 75 41 190 44 283 8 311
-132 535 -382 609 -30 9 -54 16 -54 16 -1 0 -21 -12 -46 -26z m286 -1136 l19
-21 -27 18 c-29 18 -34 25 -20 25 5 0 17 -10 28 -22z m-826 -751 c0 -2 -10
-12 -22 -23 l-23 -19 19 23 c18 21 26 27 26 19z m-100 -121 c0 -2 -8 -10 -17
-17 -16 -13 -17 -12 -4 4 13 16 21 21 21 13z m1213 -218 c-18 -20 -29 -17 -20
5 3 7 12 14 21 14 15 0 14 -2 -1 -19z m-868 -188 c-3 -5 -12 -10 -18 -10 -7 0
-6 4 3 10 19 12 23 12 15 0z m-175 -314 c0 -2 -7 -7 -16 -10 -8 -3 -12 -2 -9
4 6 10 25 14 25 6z m168 -246 c3 -7 0 -10 -6 -6 -7 4 -22 2 -34 -5 -23 -12
-23 -12 -4 10 21 23 37 23 44 1z m-133 -309 c3 -5 2 -12 -3 -15 -5 -3 -9 1 -9
9 0 17 3 19 12 6z m2 -93 c-3 -7 -5 -2 -5 12 0 14 2 19 5 13 2 -7 2 -19 0 -25z
m-1547 -152 c0 -2 -26 -23 -57 -47 -32 -24 -62 -50 -66 -56 -4 -7 -13 -13 -19
-13 -18 0 42 59 92 91 47 30 50 31 50 25z m3727 -58 c-3 -8 -6 -5 -6 6 -1 11
2 17 5 13 3 -3 4 -12 1 -19z m37 -128 c4 -24 0 -18 -14 20 -11 30 -19 60 -19
65 1 17 26 -49 33 -85z m1704 -792 c-2 -6 -10 -14 -16 -16 -7 -2 -10 2 -6 12
7 18 28 22 22 4z m-1721 -60 c-3 -8 -6 -5 -6 6 -1 11 2 17 5 13 3 -3 4 -12 1
-19z m10 -37 c0 -11 -5 -18 -9 -15 -4 3 -5 11 -1 19 7 21 12 19 10 -4z m-1109
-386 c-6 -7 -23 9 -57 55 l-34 45 47 -48 c26 -27 46 -50 44 -52z m-2298 -195
c6 -11 8 -20 6 -20 -3 0 -10 9 -16 20 -6 11 -8 20 -6 20 3 0 10 -9 16 -20z
m5931 -67 c13 -16 12 -17 -3 -4 -10 7 -18 15 -18 17 0 8 8 3 21 -13z m-5003
-5 c18 -18 14 -36 -10 -44 -45 -15 -75 5 -57 38 11 20 49 24 67 6z m5409 -482
c-21 -8 -48 -22 -59 -33 -20 -18 -21 -18 -13 7 10 33 22 40 70 39 l40 0 -38
-13z m129 -53 c36 -39 29 -40 -14 -2 -21 19 -47 40 -58 47 -10 7 -4 5 15 -4
19 -9 44 -27 57 -41z m-616 -136 c0 -2 -10 -12 -22 -23 l-23 -19 19 23 c18 21
26 27 26 19z m-50 -42 c0 -8 -92 -65 -104 -65 -6 0 14 15 44 34 64 39 60 37
60 31z m-6885 -242 c12 -10 14 -14 5 -8 -29 18 -60 48 -60 59 0 6 8 1 18 -11
9 -12 26 -30 37 -40z m5236 -120 c16 -16 13 -104 -4 -121 -12 -11 -19 -11 -50
1 -62 26 -67 72 -13 115 28 21 49 23 67 5z m-1757 -66 l26 -48 -22 6 c-13 4
-24 8 -24 9 -1 0 -5 21 -9 46 -8 52 -7 51 29 -13z m600 -303 c1 -40 0 -90 -4
-111 -6 -28 -8 -9 -9 67 -1 58 -4 125 -6 150 l-4 45 10 -39 c5 -22 11 -72 13
-112z m-2356 -290 c-3 -14 -5 -12 -10 9 -3 19 -2 25 4 19 6 -6 8 -18 6 -28z
m6662 6 c10 -6 4 -8 -21 -4 -21 4 -46 1 -60 -7 -22 -11 -23 -11 -10 4 15 18
67 22 91 7z m-4980 -111 c10 0 8 -3 -5 -9 -32 -14 -55 -11 -55 6 0 12 6 15 23
10 12 -3 29 -6 37 -7z m3514 -407 c10 -16 17 -74 11 -93 -4 -12 -16 -19 -30
-19 -40 0 -55 11 -55 40 0 46 56 101 74 72z m1532 -599 c-10 -10 -19 5 -10 18
6 11 8 11 12 0 2 -7 1 -15 -2 -18z m-4479 -273 c-1 -12 -5 -16 -10 -11 -5 5
-6 14 -3 20 11 16 15 13 13 -9z m5528 -28 l30 -34 -38 18 -39 19 -29 -33 c-16
-18 -29 -29 -29 -24 0 9 71 95 74 90 0 -2 15 -18 31 -36z m-5727 -240 c-6 -7
-21 -18 -32 -24 -18 -10 -19 -9 -9 3 8 10 9 20 3 29 -16 25 -11 29 20 17 23
-9 27 -14 18 -25z m1123 -233 c13 -11 50 -36 81 -55 70 -43 78 -56 11 -17 -60
34 -139 93 -126 93 5 0 21 -9 34 -21z m194 -119 c3 -6 -1 -7 -9 -4 -18 7 -21
14 -7 14 6 0 13 -4 16 -10z m5404 -497 c8 -16 4 -18 -35 -14 -49 3 -59 17 -16
24 15 2 30 5 34 6 4 0 12 -7 17 -16z m-2804 -113 c-3 -5 -12 -10 -18 -10 -7 0
-6 4 3 10 19 12 23 12 15 0z m55 6 c0 -2 -9 -6 -20 -9 -11 -3 -20 -1 -20 4 0
5 9 9 20 9 11 0 20 -2 20 -4z m-509 -293 c2 -21 -2 -57 -6 -61 -1 -1 -15 -4
-31 -5 -40 -3 -45 33 -8 62 33 26 44 26 45 4z m3883 -602 c14 -41 24 -76 22
-78 -2 -2 -8 9 -14 24 -6 15 -29 66 -52 113 -40 82 -40 84 -11 50 16 -19 41
-68 55 -109z m-3224 -89 c-7 -3 -19 3 -28 13 -16 15 -15 16 12 4 15 -7 23 -15
16 -17z m-264 -215 c-4 -21 -22 -45 -52 -71 l-45 -38 40 62 c22 34 43 72 47
83 10 31 17 3 10 -36z m2331 -404 c-3 -10 -5 -4 -5 12 0 17 2 24 5 18 2 -7 2
-21 0 -30z m12 -177 c1 -52 -5 -43 -14 19 -7 53 -9 87 -5 120 3 23 17 -82 19
-139z m-2826 83 c-41 -38 -93 -53 -107 -30 -3 4 5 7 18 6 14 -2 42 12 72 35
62 48 72 41 17 -11z m2707 -514 c7 -9 8 -15 2 -15 -5 0 -12 7 -16 15 -3 8 -4
15 -2 15 2 0 9 -7 16 -15z m2108 -380 c-3 -3 -9 2 -12 12 -6 14 -5 15 5 6 7
-7 10 -15 7 -18z m-671 -1947 c-2 -29 -3 -6 -3 52 0 58 1 81 3 53 2 -29 2 -77
0 -105z m0 -80 c-3 -8 -6 -5 -6 6 -1 11 2 17 5 13 3 -3 4 -12 1 -19z"/>
</g>
</svg>
